<?xml version="1.0" encoding="UTF-8"?>
<svg xmlns="http://www.w3.org/2000/svg" xmlns:xlink="http://www.w3.org/1999/xlink" width="60px" height="40px" viewBox="0 0 60 40" version="1.1">
    <defs>
        <path id="loop-upper" d="
          M 6,2 
          L 6,10
          A 6,6 0 0 0 18,10 
          A 6,6 0 0 0 30,10 
          L 30,0
          L 30,10
          A 6,6 0 0 0 42,10 
          A 6,6 0 0 0 54,10
          L 54,2
        " />
        <path id="loop-lower" d="
          M 6,38 
          L 6,30
          A 6,6 0 0 1 18,30 
          A 6,6 0 0 1 30,30
          L 30,40
          L 30,30
          A 6,6 0 0 1 42,30 
          A 6,6 0 0 1 54,30 
          L 54,38
        " />
    </defs>
    <g id="transformer1" >  
        <use href="#loop-upper" fill="white" stroke="black" stroke-width="1"/>
        <use href="#loop-lower" fill="white" stroke="black" stroke-width="1"/>
    </g>
</svg>